<?xml version="1.0" encoding="utf-8"?>
<svg xmlns="http://www.w3.org/2000/svg" width="1024" height="1024" viewBox="0 0 1024 1024">
  <g>
    <path d="M 480.15 665.25 L 473.55 668.50 L 441.49 668.81 C409.64,669.12 409.41,669.11 406.60,666.90 C404.05,664.90 403.82,664.21 404.23,659.91 C405.34,648.37 413.81,638.36 426.29,633.82 C438.02,629.56 445.04,619.52 444.98,607.07 C444.93,596.48 439.13,577.26 431.25,561.52 C411.79,522.68 378.25,498.39 333.78,490.92 C322.86,489.09 318.08,488.94 280.64,489.20 C249.44,489.43 238.05,489.18 233.50,488.19 C214.85,484.10 201.20,477.34 187.83,465.56 C177.52,456.48 174.13,451.34 173.24,443.43 C172.61,437.88 174.46,433.33 178.09,431.45 C181.47,429.70 192.07,429.62 196.97,431.31 C206.49,434.59 207.83,449.65 199.43,458.94 C197.55,461.03 196.00,462.99 196.00,463.28 C196.00,464.41 209.17,472.08 215.20,474.46 C227.21,479.21 232.78,480.19 250.73,480.73 C270.61,481.33 280.33,480.36 303.50,475.45 C384.61,458.27 418.40,436.83 432.49,393.64 C434.92,386.20 436.39,379.42 436.92,373.23 C437.35,368.13 437.91,363.76 438.15,363.52 C438.39,363.27 442.90,364.37 448.17,365.95 C472.05,373.12 489.57,375.46 519.50,375.48 C545.69,375.50 555.74,374.64 590.50,369.38 C629.75,363.45 633.99,362.97 652.50,362.34 C686.54,361.18 713.28,366.61 740.40,380.19 C759.22,389.62 771.87,398.95 787.10,414.64 C810.94,439.21 828.11,473.05 834.38,507.81 L 834.97 511.12 L 830.24 510.41 C819.92,508.87 806.70,504.17 796.18,498.28 L 789.77 494.70 L 790.50 499.10 C791.91,507.59 798.12,524.59 803.11,533.60 C809.36,544.88 818.01,556.36 830.55,570.00 C841.12,581.50 844.81,587.14 848.24,597.00 C854.66,615.47 847.54,650.05 834.97,661.41 C827.17,668.46 827.24,668.44 790.47,668.81 C757.98,669.14 757.40,669.11 754.72,667.00 C751.32,664.32 751.07,658.65 754.07,652.03 C758.33,642.64 764.92,636.85 775.26,633.41 C780.10,631.81 780.21,631.68 779.68,628.41 C778.43,620.72 763.95,604.83 749.78,595.60 C726.66,580.53 702.85,575.06 679.66,579.50 C646.76,585.80 610.10,585.79 579.55,579.48 C566.70,576.82 548.29,571.17 535.97,566.10 L 524.43 561.35 L 521.21 577.01 C512.81,617.92 502.68,644.72 490.71,657.70 C488.51,660.08 483.80,663.45 480.15,665.25 ZM 284.85 449.38 C275.08,451.38 261.96,452.07 254.20,450.99 C247.57,450.06 235.15,444.93 232.53,442.03 C231.10,440.45 231.31,440.22 235.24,439.05 C241.07,437.32 253.83,430.87 260.79,426.14 C263.96,423.99 270.99,418.24 276.42,413.37 C306.96,385.93 323.11,374.72 343.18,367.00 C351.43,363.83 366.71,360.23 375.14,359.47 C381.98,358.86 382.92,358.52 384.14,356.22 C385.71,353.27 393.97,346.46 397.24,345.42 L 399.47 344.72 L 396.98 343.71 C395.62,343.16 387.37,342.50 378.66,342.23 L 362.82 341.76 L 363.50 338.16 C365.56,327.19 374.92,317.79 385.21,316.39 C390.88,315.61 395.54,317.11 399.75,321.05 C404.67,325.67 406.39,329.68 406.45,336.67 L 406.50 342.85 L 410.50 343.45 C416.31,344.33 421.98,347.90 425.46,352.85 C428.19,356.73 428.49,357.92 428.43,364.34 C428.38,370.13 427.83,372.54 425.57,376.95 C419.10,389.53 403.38,400.90 373.02,414.95 C335.02,432.54 299.63,446.36 284.85,449.38 ZM 361.25 643.02 C358.26,646.34 353.41,647.53 348.85,646.07 C337.63,642.49 321.30,628.84 315.76,618.43 C306.76,601.49 308.52,583.13 320.69,567.00 C322.56,564.53 334.67,551.59 347.60,538.27 L 371.13 514.03 L 376.31 516.65 C384.24,520.65 389.69,524.69 398.34,532.95 C406.47,540.71 412.39,548.36 417.73,558.00 C418.07,558.62 418.40,559.19 418.70,559.73 C420.46,562.85 421.50,564.69 421.16,566.23 C420.63,568.70 416.57,570.40 406.34,575.41 C381.14,587.72 372.05,594.06 367.89,602.22 C365.50,606.89 364.07,617.30 364.03,630.23 C364.00,639.43 363.85,640.14 361.25,643.02 ZM 651.31 665.78 L 645.50 668.50 L 613.50 668.78 L 611.40 668.80 C585.76,669.03 579.03,669.09 577.10,666.07 C576.36,664.92 576.32,663.32 576.19,661.10 C575.57,650.18 584.66,638.60 597.79,633.58 C606.59,630.22 611.22,626.28 614.69,619.23 C617.17,614.18 617.50,612.41 617.47,604.25 L 617.43 595.00 L 630.04 595.00 C644.12,595.00 660.45,593.59 672.50,591.34 C676.90,590.52 684.27,589.59 688.89,589.29 L 697.27 588.73 L 696.57 592.62 C695.49,598.64 689.22,616.50 684.90,625.83 C676.40,644.24 662.82,660.39 651.31,665.78 ZM 561.00 566.48 C561.00,567.34 577.95,563.39 586.50,560.53 C605.24,554.28 624.85,544.04 646.21,529.36 C652.09,525.31 657.28,522.00 657.74,522.00 C658.20,522.00 660.74,524.59 663.39,527.75 C666.05,530.91 670.22,535.65 672.66,538.27 C674.51,540.25 675.50,541.64 676.75,541.93 C678.84,542.41 681.65,539.75 690.45,531.43 C691.56,530.38 692.76,529.24 694.07,528.01 C715.22,508.09 733.11,486.96 748.76,463.41 C756.13,452.34 770.00,428.66 770.00,427.17 C770.00,426.81 760.44,435.99 748.75,447.56 C719.11,476.91 683.00,510.30 679.40,511.68 C678.76,511.92 676.02,509.73 673.31,506.81 C670.60,503.89 666.32,499.27 663.80,496.55 L 659.22 491.59 L 652.86 496.86 C620.01,524.06 602.85,537.27 578.75,553.93 C568.99,560.68 561.00,566.33 561.00,566.48 ZM 295.07 426.37 C296.67,428.40 298.03,429.00 301.00,429.00 C303.97,429.00 305.33,428.40 306.93,426.37 C311.54,420.51 307.89,413.00 300.44,413.00 C294.03,413.00 290.83,420.97 295.07,426.37 Z" fill="rgb(50,50,50)"/>
    <path d="M 284.85 449.38 C 299.63 446.36 335.02 432.54 373.02 414.95 C 403.38 400.9 419.1 389.53 425.57 376.95 C 427.83 372.54 428.38 370.13 428.43 364.34 C 428.46 361.48 428.41 359.66 428.11 358.18 C 428.86 359.73 433.31 361.55 444.24 364.82 C 440.83 363.89 438.33 363.34 438.15 363.52 C 437.91 363.76 437.35 368.13 436.92 373.23 C 436.39 379.42 434.92 386.2 432.49 393.64 C 418.4 436.83 384.61 458.27 303.5 475.45 C 280.33 480.36 270.61 481.33 250.73 480.73 C 232.78 480.19 227.21 479.21 215.2 474.46 C 209.17 472.08 196 464.41 196 463.28 C 196 462.99 197.55 461.03 199.43 458.94 C 207.83 449.65 206.49 434.59 196.97 431.31 C 192.16 429.65 181.86 429.7 178.28 431.36 C 181.61 429.81 190.95 429.55 195.67 430.91 C 203.66 433.2 226.87 427.27 239.39 419.74 C 247.83 414.66 252.64 410.49 272 391.5 C 293.32 370.59 297.46 367.07 308.89 360.13 C 322.58 351.81 348.03 343 358.36 343 C 361.83 343 362.82 341.76 362.82 341.76 L 378.66 342.23 C 387.37 342.5 395.62 343.16 396.98 343.71 L 399.47 344.72 L 397.24 345.42 C 393.97 346.46 385.71 353.27 384.14 356.22 C 382.92 358.52 381.98 358.86 375.14 359.47 C 366.71 360.23 351.43 363.83 343.18 367 C 323.11 374.72 306.96 385.93 276.42 413.37 C 270.99 418.24 263.96 423.99 260.79 426.14 C 253.83 430.87 241.07 437.32 235.24 439.05 C 231.31 440.22 231.1 440.45 232.53 442.03 C 235.15 444.93 247.57 450.06 254.2 450.99 C 261.96 452.07 275.08 451.38 284.85 449.38 Z M 561 566.48 C 561 566.33 568.99 560.68 578.75 553.93 C 602.85 537.27 620.01 524.06 652.86 496.86 L 659.22 491.59 L 663.8 496.55 C 666.32 499.27 670.6 503.89 673.31 506.81 C 676.02 509.73 678.76 511.92 679.4 511.68 C 683 510.3 719.11 476.91 748.75 447.56 C 760.44 435.99 770 426.81 770 427.17 C 770 428.66 756.13 452.34 748.76 463.41 C 733.11 486.96 715.22 508.09 694.07 528.01 C 692.76 529.24 691.56 530.38 690.45 531.43 C 681.65 539.75 678.84 542.41 676.75 541.93 C 675.5 541.64 674.51 540.25 672.66 538.27 C 670.22 535.65 666.05 530.91 663.39 527.75 C 660.74 524.59 658.2 522 657.74 522 C 657.28 522 652.09 525.31 646.21 529.36 C 624.85 544.04 605.24 554.28 586.5 560.53 C 577.95 563.39 561 567.34 561 566.48 Z M 295.07 426.37 C 290.83 420.97 294.03 413 300.44 413 C 307.89 413 311.54 420.51 306.93 426.37 C 305.33 428.4 303.97 429 301 429 C 298.03 429 296.67 428.4 295.07 426.37 Z M 377.07 319.22 C 381.24 316.76 385.82 315.69 390.19 316.32 C 388.62 316.12 386.96 316.15 385.21 316.39 C 382.38 316.77 379.62 317.76 377.07 319.22 Z M 422.08 349.05 C 420.37 347.52 418.43 346.23 416.37 345.27 C 417 345.52 417.59 345.79 418.11 346.05 C 419.31 346.67 420.72 347.76 422.08 349.05 Z M 428 357.67 C 427.59 356.07 426.83 354.8 425.46 352.85 C 425.3 352.62 425.13 352.39 424.96 352.17 C 426.71 354.32 427.98 356.46 428 357.67 Z M 519 375.46 C 531.76 375.48 540.66 375.3 550.27 374.54 C 540.73 375.3 531.94 375.49 519.5 375.48 C 515.42 375.48 511.57 375.43 507.91 375.34 C 511.39 375.42 515.07 375.46 519 375.46 Z M 469.71 371.42 C 463.84 370.25 457.95 368.79 451.66 366.98 C 458.16 368.8 464.03 370.26 469.71 371.42 Z M 397.47 319.19 C 398.26 319.73 399.02 320.34 399.75 321.03 C 401.59 322.77 402.98 324.42 404.01 326.17 C 402.98 324.42 401.59 322.78 399.75 321.05 C 399.01 320.35 398.25 319.73 397.47 319.19 Z M 409.31 343.27 L 406.5 342.85 L 406.5 342.82 L 409.31 343.27 Z" fill="rgb(251,195,17)"/>
  </g>
</svg>